<svg width="131" height="122" viewBox="0 0 131 122" fill="none" xmlns="http://www.w3.org/2000/svg">
    <circle cx="70" cy="61" r="51.25" transform="rotate(89.2129 70 61)" stroke="black" stroke-width="17.5"/>
    <circle cx="70" cy="61" r="12.5" transform="rotate(89.2129 70 61)" stroke="black" stroke-width="5"/>
    <circle cx="70" cy="61" r="34.5" transform="rotate(89.2129 70 61)" stroke="black" stroke-width="5"/>
    <path fill-rule="evenodd" clip-rule="evenodd" d="M92.02 37.2428L95.0988 40.5247L78.8745 55.7449C78.1148 54.4488 77.0717 53.3187 75.8029 52.4562L92.02 37.2428ZM72.653 51.0264L73.3626 28.8072L68.8649 28.6636L68.1558 50.8688C69.6048 50.5927 71.135 50.6276 72.653 51.0264ZM64.9022 52.089L49.7073 35.8915L46.4253 38.9703L61.607 55.1537C62.4738 53.8868 63.606 52.846 64.9022 52.089ZM60.1541 58.3355L37.9898 57.6277L37.8461 62.1254L59.9828 62.8324C59.7133 61.3833 59.7529 59.8534 60.1541 58.3355ZM61.2156 66.1407L45.0741 81.2831L48.1529 84.5651L64.2832 69.4331C63.0155 68.5692 61.9738 67.4378 61.2156 66.1407ZM67.5165 70.8887L66.8103 93.0006L71.308 93.1442L72.0148 71.0129C70.5671 71.2999 69.0364 71.2762 67.5165 70.8887ZM75.2966 69.7465L90.4657 85.9163L93.7476 82.8375L78.556 66.6436C77.7035 67.9214 76.5834 68.9749 75.2966 69.7465ZM79.9655 63.4705L102.183 64.18L102.327 59.6823L80.096 58.9724C80.3788 60.4198 80.3529 61.9502 79.9655 63.4705Z" fill="black"/>
</svg>
